0
SECTION
2
HEADER
9
$INSUNITS
70
4
9
$ACADVER
1
AC1014
9
$HANDSEED
5
FFFF
0
ENDSEC
0
SECTION
2
TABLES
0
TABLE
2
VPORT
5
8
100
AcDbSymbolTable
0
ENDTAB
0
TABLE
2
LTYPE
5
5
100
AcDbSymbolTable
0
LTYPE
5
14
100
AcDbSymbolTableRecord
100
AcDbLinetypeTableRecord
2
BYBLOCK
70
0
0
LTYPE
5
15
100
AcDbSymbolTableRecord
100
AcDbLinetypeTableRecord
2
BYLAYER
70
0
0
LTYPE
5
16
100
AcDbSymbolTableRecord
100
AcDbLinetypeTableRecord
2
DASHED
70
0
3
Dashed __ __ __ __ __ __ __ __ __ __ __ __ __ _
72
65
73
2
40
0.75
49
0.5
74
0
49
-0.25
74
0
0
ENDTAB
0
TABLE
2
LAYER
5
2
100
AcDbSymbolTable
70
2
0
LAYER
5
50
100
AcDbSymbolTableRecord
100
AcDbLayerTableRecord
2
0
70
0
62
7
6
CONTINUOUS
0
ENDTAB
0
TABLE
2
STYLE
5
3
100
AcDbSymbolTable
70
1
0
STYLE
5
11
100
AcDbSymbolTableRecord
100
AcDbTextStyleTableRecord
2
STANDARD
70
0
0
ENDTAB
0
TABLE
2
VIEW
5
6
100
AcDbSymbolTable
70
0
0
ENDTAB
0
TABLE
2
UCS
5
7
100
AcDbSymbolTable
70
0
0
ENDTAB
0
TABLE
2
APPID
5
9
100
AcDbSymbolTable
70
2
0
APPID
5
12
100
AcDbSymbolTableRecord
100
AcDbRegAppTableRecord
2
ACAD
70
0
0
ENDTAB
0
TABLE
2
DIMSTYLE
5
A
100
AcDbSymbolTable
70
1
0
ENDTAB
0
TABLE
2
BLOCK_RECORD
5
1
100
AcDbSymbolTable
70
1
0
BLOCK_RECORD
5
1F
100
AcDbSymbolTableRecord
100
AcDbBlockTableRecord
2
*MODEL_SPACE
0
BLOCK_RECORD
5
1B
100
AcDbSymbolTableRecord
100
AcDbBlockTableRecord
2
*PAPER_SPACE
0
ENDTAB
0
ENDSEC
0
SECTION
2
BLOCKS
0
BLOCK
5
20
100
AcDbEntity
100
AcDbBlockBegin
2
*MODEL_SPACE
0
ENDBLK
5
21
100
AcDbEntity
100
AcDbBlockEnd
0
BLOCK
5
1C
100
AcDbEntity
100
AcDbBlockBegin
2
*PAPER_SPACE
0
ENDBLK
5
1D
100
AcDbEntity
100
AcDbBlockEnd
0
ENDSEC
0
SECTION
2
ENTITIES
0
LWPOLYLINE
5
100
100
AcDbEntity
8
0
100
AcDbPolyline
90
40
70
1
43
0.0
10
121.5066773628938
20
244.79318261376889
10
121.50667736289373
20
226.92318261376883
42
0.41421356237309503
10
122.70667736289377
20
225.72318261376878
10
123.22667736289381
20
225.72318261376887
42
-0.41421356237309503
10
124.42667736289378
20
224.52318261376888
10
124.42667736289386
20
189.11318261376886
42
-0.41421356237309503
10
123.22667736289381
20
187.91318261376881
10
91.846677362893786
20
187.91318261376881
42
-0.41421356237309503
10
90.646677362893811
20
189.11318261376886
10
90.646677362893783
20
189.64318261376883
42
0.41421356237309503
10
89.446677362893809
20
190.84318261376879
10
71.526677362893793
20
190.84318261376879
42
0.41421356237309503
10
70.326677362893818
20
189.64318261376883
10
70.326677362893818
20
189.11318261376886
42
-0.41421356237309503
10
69.126677362893773
20
187.91318261376881
10
35.456677362893799
20
187.91318261376881
42
-0.41421356237309503
10
34.256677362893754
20
189.11318261376886
10
34.256677362893825
20
224.52318261376888
42
-0.41421356237309503
10
35.456677362893799
20
225.72318261376887
10
35.97667736289381
20
225.72318261376878
42
0.41421356237309503
10
37.176677362893798
20
226.92318261376883
10
37.176677362893798
20
244.79318261376889
42
0.41421356237309503
10
35.97667736289381
20
245.99318261376885
10
35.456677362893799
20
245.99318261376885
42
-0.41421356237309503
10
34.256677362893804
20
247.19318261376884
10
34.256677362893754
20
282.60318261376881
42
-0.41421356237309503
10
35.456677362893799
20
283.80318261376885
10
69.126677362893773
20
283.80318261376885
42
-0.41421356237309503
10
70.326677362893818
20
282.60318261376881
10
70.326677362893818
20
282.07318261376884
42
0.41421356237309503
10
71.526677362893793
20
280.87318261376885
10
89.446677362893809
20
280.87318261376885
42
0.41421356237309503
10
90.646677362893783
20
282.07318261376884
10
90.64667736289374
20
282.60318261376881
42
-0.41421356237309503
10
91.846677362893786
20
283.80318261376885
10
123.22667736289381
20
283.80318261376885
42
-0.41421356237309503
10
124.42667736289386
20
282.60318261376881
10
124.42667736289378
20
247.19318261376884
42
-0.41421356237309503
10
123.22667736289381
20
245.99318261376885
10
122.70667736289377
20
245.99318261376885
42
0.41421356237309503
0
LWPOLYLINE
5
101
100
AcDbEntity
8
0
100
AcDbPolyline
90
2
70
1
43
0.0
10
39.336677362893809
20
277.13318261376878
42
0.99999999999999989
10
39.336677362893795
20
280.3131826137689
42
0.99999999999999989
0
LWPOLYLINE
5
102
100
AcDbEntity
8
0
100
AcDbPolyline
90
2
70
1
43
0.0
10
119.34667736289386
20
191.40318261376876
42
0.99999999999999989
10
119.34667736289383
20
194.58318261376888
42
0.99999999999999989
0
LWPOLYLINE
5
103
100
AcDbEntity
8
0
100
AcDbPolyline
90
2
70
1
43
0.0
10
39.336677362893809
20
191.40318261376876
42
0.99999999999999989
10
39.336677362893795
20
194.58318261376888
42
0.99999999999999989
0
LWPOLYLINE
5
104
100
AcDbEntity
8
0
100
AcDbPolyline
90
2
70
1
43
0.0
10
119.34667736289383
20
280.3131826137689
42
0.62331983663859425
10
119.34667736289386
20
277.13318261376878
42
0.99999999999999989
0
CIRCLE
5
105
100
AcDbEntity
8
0
100
AcDbCircle
10
47.981622070668202
20
278.72318261376881
30
0
40
0.50800000000000001
210
0
220
0
230
1
0
CIRCLE
5
106
100
AcDbEntity
8
0
100
AcDbCircle
10
50.521622070668201
20
278.72318261376881
30
0
40
0.50800000000000001
210
0
220
0
230
1
0
CIRCLE
5
107
100
AcDbEntity
8
0
100
AcDbCircle
10
53.0616220706682
20
278.72318261376881
30
0
40
0.50800000000000001
210
0
220
0
230
1
0
CIRCLE
5
108
100
AcDbEntity
8
0
100
AcDbCircle
10
55.601622070668206
20
278.72318261376881
30
0
40
0.50800000000000001
210
0
220
0
230
1
0
CIRCLE
5
109
100
AcDbEntity
8
0
100
AcDbCircle
10
58.141622070668205
20
278.72318261376881
30
0
40
0.50800000000000001
210
0
220
0
230
1
0
CIRCLE
5
110
100
AcDbEntity
8
0
100
AcDbCircle
10
60.681622070668197
20
278.72318261376881
30
0
40
0.50800000000000001
210
0
220
0
230
1
0
CIRCLE
5
111
100
AcDbEntity
8
0
100
AcDbCircle
10
63.221622070668204
20
278.72318261376881
30
0
40
0.50800000000000001
210
0
220
0
230
1
0
CIRCLE
5
112
100
AcDbEntity
8
0
100
AcDbCircle
10
65.76162207066821
20
278.72318261376881
30
0
40
0.50800000000000001
210
0
220
0
230
1
0
CIRCLE
5
113
100
AcDbEntity
8
0
100
AcDbCircle
10
68.301622070668202
20
278.72318261376881
30
0
40
0.50800000000000001
210
0
220
0
230
1
0
CIRCLE
5
114
100
AcDbEntity
8
0
100
AcDbCircle
10
70.841622070668194
20
278.72318261376881
30
0
40
0.50800000000000001
210
0
220
0
230
1
0
CIRCLE
5
115
100
AcDbEntity
8
0
100
AcDbCircle
10
73.3816220706682
20
278.72318261376881
30
0
40
0.50800000000000001
210
0
220
0
230
1
0
CIRCLE
5
116
100
AcDbEntity
8
0
100
AcDbCircle
10
75.921622070668207
20
278.72318261376881
30
0
40
0.50800000000000001
210
0
220
0
230
1
0
CIRCLE
5
117
100
AcDbEntity
8
0
100
AcDbCircle
10
78.461622070668199
20
278.72318261376881
30
0
40
0.50800000000000001
210
0
220
0
230
1
0
CIRCLE
5
118
100
AcDbEntity
8
0
100
AcDbCircle
10
81.001622070668191
20
278.72318261376881
30
0
40
0.50800000000000001
210
0
220
0
230
1
0
CIRCLE
5
119
100
AcDbEntity
8
0
100
AcDbCircle
10
83.541622070668211
20
278.72318261376881
30
0
40
0.50800000000000001
210
0
220
0
230
1
0
CIRCLE
5
120
100
AcDbEntity
8
0
100
AcDbCircle
10
86.081622070668203
20
278.72318261376881
30
0
40
0.50800000000000001
210
0
220
0
230
1
0
CIRCLE
5
121
100
AcDbEntity
8
0
100
AcDbCircle
10
88.621622070668195
20
278.72318261376881
30
0
40
0.50800000000000001
210
0
220
0
230
1
0
CIRCLE
5
122
100
AcDbEntity
8
0
100
AcDbCircle
10
91.161622070668201
20
278.72318261376881
30
0
40
0.50800000000000001
210
0
220
0
230
1
0
CIRCLE
5
123
100
AcDbEntity
8
0
100
AcDbCircle
10
93.701622070668193
20
278.72318261376881
30
0
40
0.50800000000000001
210
0
220
0
230
1
0
CIRCLE
5
124
100
AcDbEntity
8
0
100
AcDbCircle
10
96.2416220706682
20
278.72318261376881
30
0
40
0.50800000000000001
210
0
220
0
230
1
0
CIRCLE
5
125
100
AcDbEntity
8
0
100
AcDbCircle
10
98.781622070668206
20
278.72318261376881
30
0
40
0.50800000000000001
210
0
220
0
230
1
0
CIRCLE
5
126
100
AcDbEntity
8
0
100
AcDbCircle
10
101.3216220706682
20
278.72318261376881
30
0
40
0.50800000000000001
210
0
220
0
230
1
0
CIRCLE
5
127
100
AcDbEntity
8
0
100
AcDbCircle
10
103.8616220706682
20
278.72318261376881
30
0
40
0.50800000000000001
210
0
220
0
230
1
0
CIRCLE
5
128
100
AcDbEntity
8
0
100
AcDbCircle
10
106.40162207066821
20
278.72318261376881
30
0
40
0.50800000000000001
210
0
220
0
230
1
0
CIRCLE
5
129
100
AcDbEntity
8
0
100
AcDbCircle
10
108.9416220706682
20
278.72318261376881
30
0
40
0.50800000000000001
210
0
220
0
230
1
0
CIRCLE
5
130
100
AcDbEntity
8
0
100
AcDbCircle
10
111.48162207066819
20
278.72318261376881
30
0
40
0.50800000000000001
210
0
220
0
230
1
0
CIRCLE
5
131
100
AcDbEntity
8
0
100
AcDbCircle
10
47.981622070668202
20
276.18318261376879
30
0
40
0.50800000000000001
210
0
220
0
230
1
0
CIRCLE
5
132
100
AcDbEntity
8
0
100
AcDbCircle
10
50.521622070668201
20
276.18318261376879
30
0
40
0.50800000000000001
210
0
220
0
230
1
0
CIRCLE
5
133
100
AcDbEntity
8
0
100
AcDbCircle
10
53.0616220706682
20
276.18318261376879
30
0
40
0.50800000000000001
210
0
220
0
230
1
0
CIRCLE
5
134
100
AcDbEntity
8
0
100
AcDbCircle
10
55.601622070668206
20
276.18318261376879
30
0
40
0.50800000000000001
210
0
220
0
230
1
0
CIRCLE
5
135
100
AcDbEntity
8
0
100
AcDbCircle
10
58.141622070668205
20
276.18318261376879
30
0
40
0.50800000000000001
210
0
220
0
230
1
0
CIRCLE
5
136
100
AcDbEntity
8
0
100
AcDbCircle
10
60.681622070668197
20
276.18318261376879
30
0
40
0.50800000000000001
210
0
220
0
230
1
0
CIRCLE
5
137
100
AcDbEntity
8
0
100
AcDbCircle
10
63.221622070668204
20
276.18318261376879
30
0
40
0.50800000000000001
210
0
220
0
230
1
0
CIRCLE
5
138
100
AcDbEntity
8
0
100
AcDbCircle
10
65.76162207066821
20
276.18318261376879
30
0
40
0.50800000000000001
210
0
220
0
230
1
0
CIRCLE
5
139
100
AcDbEntity
8
0
100
AcDbCircle
10
68.301622070668202
20
276.18318261376879
30
0
40
0.50800000000000001
210
0
220
0
230
1
0
CIRCLE
5
140
100
AcDbEntity
8
0
100
AcDbCircle
10
70.841622070668194
20
276.18318261376879
30
0
40
0.50800000000000001
210
0
220
0
230
1
0
CIRCLE
5
141
100
AcDbEntity
8
0
100
AcDbCircle
10
73.3816220706682
20
276.18318261376879
30
0
40
0.50800000000000001
210
0
220
0
230
1
0
CIRCLE
5
142
100
AcDbEntity
8
0
100
AcDbCircle
10
75.921622070668207
20
276.18318261376879
30
0
40
0.50800000000000001
210
0
220
0
230
1
0
CIRCLE
5
143
100
AcDbEntity
8
0
100
AcDbCircle
10
78.461622070668199
20
276.18318261376879
30
0
40
0.50800000000000001
210
0
220
0
230
1
0
CIRCLE
5
144
100
AcDbEntity
8
0
100
AcDbCircle
10
81.001622070668191
20
276.18318261376879
30
0
40
0.50800000000000001
210
0
220
0
230
1
0
CIRCLE
5
145
100
AcDbEntity
8
0
100
AcDbCircle
10
83.541622070668211
20
276.18318261376879
30
0
40
0.50800000000000001
210
0
220
0
230
1
0
CIRCLE
5
146
100
AcDbEntity
8
0
100
AcDbCircle
10
86.081622070668203
20
276.18318261376879
30
0
40
0.50800000000000001
210
0
220
0
230
1
0
CIRCLE
5
147
100
AcDbEntity
8
0
100
AcDbCircle
10
88.621622070668195
20
276.18318261376879
30
0
40
0.50800000000000001
210
0
220
0
230
1
0
CIRCLE
5
148
100
AcDbEntity
8
0
100
AcDbCircle
10
91.161622070668201
20
276.18318261376879
30
0
40
0.50800000000000001
210
0
220
0
230
1
0
CIRCLE
5
149
100
AcDbEntity
8
0
100
AcDbCircle
10
93.701622070668193
20
276.18318261376879
30
0
40
0.50800000000000001
210
0
220
0
230
1
0
CIRCLE
5
150
100
AcDbEntity
8
0
100
AcDbCircle
10
96.2416220706682
20
276.18318261376879
30
0
40
0.50800000000000001
210
0
220
0
230
1
0
CIRCLE
5
151
100
AcDbEntity
8
0
100
AcDbCircle
10
98.781622070668206
20
276.18318261376879
30
0
40
0.50800000000000001
210
0
220
0
230
1
0
CIRCLE
5
152
100
AcDbEntity
8
0
100
AcDbCircle
10
101.3216220706682
20
276.18318261376879
30
0
40
0.50800000000000001
210
0
220
0
230
1
0
CIRCLE
5
153
100
AcDbEntity
8
0
100
AcDbCircle
10
103.8616220706682
20
276.18318261376879
30
0
40
0.50800000000000001
210
0
220
0
230
1
0
CIRCLE
5
154
100
AcDbEntity
8
0
100
AcDbCircle
10
106.40162207066821
20
276.18318261376879
30
0
40
0.50800000000000001
210
0
220
0
230
1
0
CIRCLE
5
155
100
AcDbEntity
8
0
100
AcDbCircle
10
108.9416220706682
20
276.18318261376879
30
0
40
0.50800000000000001
210
0
220
0
230
1
0
CIRCLE
5
156
100
AcDbEntity
8
0
100
AcDbCircle
10
111.48162207066819
20
276.18318261376879
30
0
40
0.50800000000000001
210
0
220
0
230
1
0
CIRCLE
5
157
100
AcDbEntity
8
0
100
AcDbCircle
10
47.981622070668202
20
273.64318261376883
30
0
40
0.50800000000000001
210
0
220
0
230
1
0
CIRCLE
5
158
100
AcDbEntity
8
0
100
AcDbCircle
10
50.521622070668201
20
273.64318261376883
30
0
40
0.50800000000000001
210
0
220
0
230
1
0
CIRCLE
5
159
100
AcDbEntity
8
0
100
AcDbCircle
10
53.0616220706682
20
273.64318261376883
30
0
40
0.50800000000000001
210
0
220
0
230
1
0
CIRCLE
5
160
100
AcDbEntity
8
0
100
AcDbCircle
10
55.601622070668206
20
273.64318261376883
30
0
40
0.50800000000000001
210
0
220
0
230
1
0
CIRCLE
5
161
100
AcDbEntity
8
0
100
AcDbCircle
10
58.141622070668205
20
273.64318261376883
30
0
40
0.50800000000000001
210
0
220
0
230
1
0
CIRCLE
5
162
100
AcDbEntity
8
0
100
AcDbCircle
10
60.681622070668197
20
273.64318261376883
30
0
40
0.50800000000000001
210
0
220
0
230
1
0
CIRCLE
5
163
100
AcDbEntity
8
0
100
AcDbCircle
10
63.221622070668204
20
273.64318261376883
30
0
40
0.50800000000000001
210
0
220
0
230
1
0
CIRCLE
5
164
100
AcDbEntity
8
0
100
AcDbCircle
10
65.76162207066821
20
273.64318261376883
30
0
40
0.50800000000000001
210
0
220
0
230
1
0
CIRCLE
5
165
100
AcDbEntity
8
0
100
AcDbCircle
10
68.301622070668202
20
273.64318261376883
30
0
40
0.50800000000000001
210
0
220
0
230
1
0
CIRCLE
5
166
100
AcDbEntity
8
0
100
AcDbCircle
10
70.841622070668194
20
273.64318261376883
30
0
40
0.50800000000000001
210
0
220
0
230
1
0
CIRCLE
5
167
100
AcDbEntity
8
0
100
AcDbCircle
10
73.3816220706682
20
273.64318261376883
30
0
40
0.50800000000000001
210
0
220
0
230
1
0
CIRCLE
5
168
100
AcDbEntity
8
0
100
AcDbCircle
10
75.921622070668207
20
273.64318261376883
30
0
40
0.50800000000000001
210
0
220
0
230
1
0
CIRCLE
5
169
100
AcDbEntity
8
0
100
AcDbCircle
10
78.461622070668199
20
273.64318261376883
30
0
40
0.50800000000000001
210
0
220
0
230
1
0
CIRCLE
5
170
100
AcDbEntity
8
0
100
AcDbCircle
10
81.001622070668191
20
273.64318261376883
30
0
40
0.50800000000000001
210
0
220
0
230
1
0
CIRCLE
5
171
100
AcDbEntity
8
0
100
AcDbCircle
10
83.541622070668211
20
273.64318261376883
30
0
40
0.50800000000000001
210
0
220
0
230
1
0
CIRCLE
5
172
100
AcDbEntity
8
0
100
AcDbCircle
10
86.081622070668203
20
273.64318261376883
30
0
40
0.50800000000000001
210
0
220
0
230
1
0
CIRCLE
5
173
100
AcDbEntity
8
0
100
AcDbCircle
10
88.621622070668195
20
273.64318261376883
30
0
40
0.50800000000000001
210
0
220
0
230
1
0
CIRCLE
5
174
100
AcDbEntity
8
0
100
AcDbCircle
10
91.161622070668201
20
273.64318261376883
30
0
40
0.50800000000000001
210
0
220
0
230
1
0
CIRCLE
5
175
100
AcDbEntity
8
0
100
AcDbCircle
10
93.701622070668193
20
273.64318261376883
30
0
40
0.50800000000000001
210
0
220
0
230
1
0
CIRCLE
5
176
100
AcDbEntity
8
0
100
AcDbCircle
10
96.2416220706682
20
273.64318261376883
30
0
40
0.50800000000000001
210
0
220
0
230
1
0
CIRCLE
5
177
100
AcDbEntity
8
0
100
AcDbCircle
10
98.781622070668206
20
273.64318261376883
30
0
40
0.50800000000000001
210
0
220
0
230
1
0
CIRCLE
5
178
100
AcDbEntity
8
0
100
AcDbCircle
10
101.3216220706682
20
273.64318261376883
30
0
40
0.50800000000000001
210
0
220
0
230
1
0
CIRCLE
5
179
100
AcDbEntity
8
0
100
AcDbCircle
10
103.8616220706682
20
273.64318261376883
30
0
40
0.50800000000000001
210
0
220
0
230
1
0
CIRCLE
5
180
100
AcDbEntity
8
0
100
AcDbCircle
10
106.40162207066821
20
273.64318261376883
30
0
40
0.50800000000000001
210
0
220
0
230
1
0
CIRCLE
5
181
100
AcDbEntity
8
0
100
AcDbCircle
10
108.9416220706682
20
273.64318261376883
30
0
40
0.50800000000000001
210
0
220
0
230
1
0
CIRCLE
5
182
100
AcDbEntity
8
0
100
AcDbCircle
10
111.48162207066819
20
273.64318261376883
30
0
40
0.50800000000000001
210
0
220
0
230
1
0
CIRCLE
5
183
100
AcDbEntity
8
0
100
AcDbCircle
10
47.981622070668202
20
271.10318261376881
30
0
40
0.50800000000000001
210
0
220
0
230
1
0
CIRCLE
5
184
100
AcDbEntity
8
0
100
AcDbCircle
10
50.521622070668201
20
271.10318261376881
30
0
40
0.50800000000000001
210
0
220
0
230
1
0
CIRCLE
5
185
100
AcDbEntity
8
0
100
AcDbCircle
10
53.0616220706682
20
271.10318261376881
30
0
40
0.50800000000000001
210
0
220
0
230
1
0
CIRCLE
5
186
100
AcDbEntity
8
0
100
AcDbCircle
10
55.601622070668206
20
271.10318261376881
30
0
40
0.50800000000000001
210
0
220
0
230
1
0
CIRCLE
5
187
100
AcDbEntity
8
0
100
AcDbCircle
10
58.141622070668205
20
271.10318261376881
30
0
40
0.50800000000000001
210
0
220
0
230
1
0
CIRCLE
5
188
100
AcDbEntity
8
0
100
AcDbCircle
10
60.681622070668197
20
271.10318261376881
30
0
40
0.50800000000000001
210
0
220
0
230
1
0
CIRCLE
5
189
100
AcDbEntity
8
0
100
AcDbCircle
10
63.221622070668204
20
271.10318261376881
30
0
40
0.50800000000000001
210
0
220
0
230
1
0
CIRCLE
5
190
100
AcDbEntity
8
0
100
AcDbCircle
10
65.76162207066821
20
271.10318261376881
30
0
40
0.50800000000000001
210
0
220
0
230
1
0
CIRCLE
5
191
100
AcDbEntity
8
0
100
AcDbCircle
10
68.301622070668202
20
271.10318261376881
30
0
40
0.50800000000000001
210
0
220
0
230
1
0
CIRCLE
5
192
100
AcDbEntity
8
0
100
AcDbCircle
10
70.841622070668194
20
271.10318261376881
30
0
40
0.50800000000000001
210
0
220
0
230
1
0
CIRCLE
5
193
100
AcDbEntity
8
0
100
AcDbCircle
10
73.3816220706682
20
271.10318261376881
30
0
40
0.50800000000000001
210
0
220
0
230
1
0
CIRCLE
5
194
100
AcDbEntity
8
0
100
AcDbCircle
10
75.921622070668207
20
271.10318261376881
30
0
40
0.50800000000000001
210
0
220
0
230
1
0
CIRCLE
5
195
100
AcDbEntity
8
0
100
AcDbCircle
10
78.461622070668199
20
271.10318261376881
30
0
40
0.50800000000000001
210
0
220
0
230
1
0
CIRCLE
5
196
100
AcDbEntity
8
0
100
AcDbCircle
10
81.001622070668191
20
271.10318261376881
30
0
40
0.50800000000000001
210
0
220
0
230
1
0
CIRCLE
5
197
100
AcDbEntity
8
0
100
AcDbCircle
10
83.541622070668211
20
271.10318261376881
30
0
40
0.50800000000000001
210
0
220
0
230
1
0
CIRCLE
5
198
100
AcDbEntity
8
0
100
AcDbCircle
10
86.081622070668203
20
271.10318261376881
30
0
40
0.50800000000000001
210
0
220
0
230
1
0
CIRCLE
5
199
100
AcDbEntity
8
0
100
AcDbCircle
10
88.621622070668195
20
271.10318261376881
30
0
40
0.50800000000000001
210
0
220
0
230
1
0
CIRCLE
5
200
100
AcDbEntity
8
0
100
AcDbCircle
10
91.161622070668201
20
271.10318261376881
30
0
40
0.50800000000000001
210
0
220
0
230
1
0
CIRCLE
5
201
100
AcDbEntity
8
0
100
AcDbCircle
10
93.701622070668193
20
271.10318261376881
30
0
40
0.50800000000000001
210
0
220
0
230
1
0
CIRCLE
5
202
100
AcDbEntity
8
0
100
AcDbCircle
10
96.2416220706682
20
271.10318261376881
30
0
40
0.50800000000000001
210
0
220
0
230
1
0
CIRCLE
5
203
100
AcDbEntity
8
0
100
AcDbCircle
10
98.781622070668206
20
271.10318261376881
30
0
40
0.50800000000000001
210
0
220
0
230
1
0
CIRCLE
5
204
100
AcDbEntity
8
0
100
AcDbCircle
10
101.3216220706682
20
271.10318261376881
30
0
40
0.50800000000000001
210
0
220
0
230
1
0
CIRCLE
5
205
100
AcDbEntity
8
0
100
AcDbCircle
10
103.8616220706682
20
271.10318261376881
30
0
40
0.50800000000000001
210
0
220
0
230
1
0
CIRCLE
5
206
100
AcDbEntity
8
0
100
AcDbCircle
10
106.40162207066821
20
271.10318261376881
30
0
40
0.50800000000000001
210
0
220
0
230
1
0
CIRCLE
5
207
100
AcDbEntity
8
0
100
AcDbCircle
10
108.9416220706682
20
271.10318261376881
30
0
40
0.50800000000000001
210
0
220
0
230
1
0
CIRCLE
5
208
100
AcDbEntity
8
0
100
AcDbCircle
10
111.48162207066819
20
271.10318261376881
30
0
40
0.50800000000000001
210
0
220
0
230
1
0
ENDSEC
0
SECTION
2
OBJECTS
0
DICTIONARY
5
C
100
AcDbDictionary
3
ACAD_GROUP
350
D
3
ACAD_MLINESTYLE
350
17
0
DICTIONARY
5
D
100
AcDbDictionary
0
DICTIONARY
5
1A
330
C
100
AcDbDictionary
0
DICTIONARY
5
17
100
AcDbDictionary
0
ENDSEC
0
EOF
